<?xml version="1.0" standalone="no"?>
<!DOCTYPE svg PUBLIC "-//W3C//DTD SVG 20010904//EN"
 "http://www.w3.org/TR/2001/REC-SVG-20010904/DTD/svg10.dtd">
<svg version="1.0" xmlns="http://www.w3.org/2000/svg"
 width="2048.000000pt" height="2048.000000pt" viewBox="0 0 2048.000000 2048.000000"
 preserveAspectRatio="xMidYMid meet">

<g transform="translate(0.000000,2048.000000) scale(0.100000,-0.100000)"
fill="#000000" stroke="none">
<path d="M9505 18839 c-341 -30 -682 -117 -982 -250 -452 -199 -880 -481
-1216 -799 -113 -107 -148 -155 -239 -330 -36 -69 -86 -159 -112 -200 -53 -85
-101 -204 -122 -300 -8 -36 -17 -144 -21 -240 -6 -191 0 -253 44 -405 l25 -91
-32 -64 c-39 -77 -133 -172 -235 -238 -38 -24 -76 -52 -82 -60 -36 -44 6 -110
95 -154 l44 -21 -58 -50 c-129 -111 -184 -172 -184 -204 0 -46 40 -78 98 -78
26 0 62 3 80 7 30 7 32 6 22 -11 -5 -10 -45 -49 -89 -85 -140 -117 -138 -113
-201 -426 -38 -185 -125 -583 -134 -605 -2 -6 -30 -19 -62 -29 -125 -39 -221
-97 -250 -149 -10 -17 -14 -17 -95 2 -119 28 -213 36 -248 22 -41 -18 -54 -49
-49 -123 3 -56 11 -77 61 -164 78 -138 95 -191 212 -676 25 -103 61 -233 81
-290 61 -176 155 -355 236 -451 l41 -49 8 -266 c8 -267 18 -373 65 -662 38
-241 85 -414 224 -832 180 -539 350 -959 584 -1441 159 -330 265 -496 430
-674 117 -126 348 -281 613 -411 219 -107 278 -125 743 -218 178 -36 193 -38
395 -38 231 0 293 8 533 70 443 114 812 321 1298 727 201 167 884 846 1119
1112 178 201 258 285 266 279 14 -8 11 -75 -16 -289 -36 -298 -64 -546 -74
-678 -9 -109 -8 -129 15 -240 13 -67 37 -162 53 -212 16 -49 44 -142 61 -205
79 -283 241 -602 397 -779 26 -30 91 -93 144 -140 52 -47 161 -146 240 -220
172 -160 415 -356 674 -543 105 -76 238 -175 296 -220 l107 -82 -23 -36 c-13
-20 -46 -82 -73 -137 -45 -89 -91 -167 -232 -398 -46 -74 -282 -429 -371 -555
-308 -442 -799 -974 -1442 -1563 -242 -222 -623 -551 -912 -787 -77 -63 -221
-185 -321 -270 -607 -520 -1353 -1119 -1714 -1375 -326 -231 -747 -583 -934
-779 -112 -118 -276 -322 -276 -344 0 -31 39 2 210 176 296 300 615 561 1085
886 243 169 436 312 700 521 242 192 819 666 1005 825 74 64 212 179 305 255
356 291 737 618 955 820 614 570 1005 989 1336 1430 350 467 784 1176 784
1283 0 17 -11 39 -28 57 -32 34 -190 165 -332 276 -91 71 -145 114 -420 336
-171 138 -299 257 -469 436 -258 273 -360 415 -491 682 -143 292 -203 499
-230 799 -12 128 -7 181 45 461 45 241 70 551 52 637 -4 21 -19 51 -33 68 -35
41 -98 43 -145 3 -39 -33 -420 -466 -563 -640 -75 -92 -106 -123 -123 -123
-15 0 -58 -34 -131 -102 -182 -174 -593 -454 -887 -605 -488 -252 -822 -378
-1350 -511 -412 -104 -665 -138 -787 -107 -37 9 -72 14 -76 11 -24 -15 -297
97 -414 170 -48 30 -94 54 -101 54 -32 0 -229 150 -333 254 -194 194 -272 311
-468 704 -264 528 -437 964 -684 1722 -76 234 -124 451 -177 795 -16 109 -41
532 -32 541 3 3 32 -14 64 -38 123 -94 149 -108 266 -138 262 -68 588 -67 796
1 169 56 338 172 467 319 48 55 89 98 91 96 6 -6 -57 -168 -102 -262 -48 -99
-106 -167 -208 -242 -69 -51 -133 -144 -143 -208 -14 -94 29 -229 101 -314 40
-48 50 -53 163 -75 102 -20 177 -57 306 -148 141 -101 184 -121 262 -122 50 0
73 6 135 37 40 21 106 63 144 94 92 75 134 92 259 106 90 10 130 9 278 -7 148
-15 185 -16 257 -6 93 14 206 51 262 87 70 44 115 122 120 208 4 64 -12 69
-44 14 -37 -63 -84 -103 -158 -137 -114 -51 -180 -64 -304 -57 -325 18 -391
19 -475 2 -101 -21 -164 -51 -253 -123 -86 -69 -169 -113 -213 -113 -40 0 -92
24 -189 90 -93 63 -182 107 -252 125 -67 17 -214 20 -230 4 -22 -22 -55 96
-61 213 l-5 108 34 56 c20 33 57 74 90 99 153 119 233 261 319 566 49 174 89
267 256 606 159 319 183 383 147 383 -13 0 -26 -15 -42 -47 -26 -53 -174 -293
-178 -289 -2 1 2 29 9 62 6 32 11 115 12 184 0 142 -24 261 -75 364 -16 32
-28 60 -27 61 11 10 724 -38 736 -49 1 -2 -4 -43 -13 -91 -29 -166 -16 -420
31 -604 52 -206 212 -468 390 -641 218 -211 440 -329 703 -374 256 -44 579
-47 759 -7 412 91 626 259 825 648 74 144 134 300 192 499 26 87 64 194 84
239 l37 80 140 27 c192 38 182 37 566 48 376 11 500 22 567 51 24 10 47 19 51
19 4 0 10 -144 14 -320 7 -324 14 -389 52 -462 12 -23 18 -28 27 -19 15 15 13
649 -2 921 -6 102 -15 286 -22 410 -7 149 -17 252 -30 305 -10 44 -25 125 -34
180 -24 152 -19 141 -69 154 -25 6 -47 11 -49 11 -12 0 3 -157 22 -229 12 -46
20 -85 18 -87 -2 -2 -26 2 -53 10 -27 7 -85 21 -129 31 -238 52 -373 127 -869
485 -126 91 -262 194 -301 230 -39 36 -122 111 -184 168 -123 113 -153 125
-159 66 -2 -23 7 -42 37 -80 l39 -50 13 -158 c12 -156 8 -433 -6 -457 -5 -7
-27 28 -57 91 -91 194 -215 333 -363 406 -77 38 -117 50 -265 80 -262 51 -301
67 -443 171 -107 80 -193 172 -237 255 -19 35 -32 65 -31 68 5 7 -49 33 -55
27 -8 -8 23 -118 91 -322 77 -229 90 -305 82 -468 -8 -173 -7 -172 -86 -94
-91 88 -179 148 -314 212 -62 30 -145 72 -184 94 -38 22 -115 59 -169 82 -110
46 -240 122 -414 240 -142 96 -227 165 -545 439 -293 253 -364 310 -465 377
-229 153 -477 225 -718 207 -51 -4 -95 -11 -98 -15 -3 -5 6 -9 20 -9 38 0 32
-14 -16 -36 -68 -30 -179 -106 -230 -157 -26 -26 -49 -44 -51 -40 -33 56 -40
316 -12 497 17 112 53 243 74 267 21 24 82 131 149 259 122 235 155 274 425
497 238 197 413 315 703 471 473 255 842 361 1349 387 155 9 282 -3 565 -50
335 -56 474 -67 867 -69 193 0 349 -4 346 -8 -2 -4 -25 -20 -51 -34 -144 -82
-172 -105 -172 -139 0 -35 26 -45 143 -55 113 -10 181 -23 386 -75 212 -53
309 -89 506 -186 232 -116 454 -187 838 -270 68 -15 67 -16 -63 -65 -55 -21
-92 -41 -104 -58 -20 -26 -20 -26 0 -53 16 -21 41 -32 124 -54 251 -66 543
-186 689 -283 165 -111 323 -286 512 -569 159 -238 229 -315 359 -395 l81 -49
-33 -7 c-83 -17 -285 -18 -398 -2 -63 9 -135 16 -162 16 -37 0 -50 5 -63 22
-12 19 -18 21 -33 12 -13 -9 -16 -23 -14 -64 3 -54 22 -110 92 -268 33 -77
100 -285 100 -313 0 -5 -29 -6 -64 -2 -58 5 -64 4 -80 -18 -9 -13 -16 -34 -16
-47 0 -13 37 -94 82 -180 107 -204 136 -264 144 -296 5 -23 3 -26 -17 -26 -44
0 -101 -21 -126 -46 -29 -29 -26 -60 13 -111 35 -46 74 -133 74 -165 0 -16 4
-28 10 -28 5 0 13 -12 16 -26 6 -22 -3 -35 -59 -92 -36 -37 -68 -77 -71 -88
-4 -12 4 -56 18 -100 14 -44 30 -108 37 -144 17 -93 17 -722 0 -815 -7 -38
-15 -125 -18 -192 l-5 -121 -152 -4 -151 -3 -123 -54 c-106 -47 -133 -64 -200
-127 -50 -46 -89 -93 -109 -131 -68 -127 -102 -331 -60 -357 15 -9 21 -7 32 8
8 10 21 16 29 13 22 -9 59 25 125 112 80 105 240 244 340 296 73 37 245 27
314 -19 19 -12 44 -45 62 -81 29 -57 30 -66 30 -185 0 -145 -15 -216 -81 -385
-124 -320 -293 -633 -512 -950 -206 -299 -636 -670 -756 -653 -23 3 -68 77
-88 143 -17 59 -44 85 -88 85 -91 0 -111 -70 -170 -575 -11 -99 -23 -192 -26
-207 -11 -50 13 -30 40 34 32 74 82 268 122 471 15 81 32 147 36 147 4 0 8 -8
8 -17 1 -30 63 -135 93 -157 47 -34 125 -28 217 17 151 74 448 327 589 502 90
112 280 402 374 573 97 175 229 461 280 607 121 349 82 655 -95 746 -49 25
-151 49 -210 49 -62 0 -144 -18 -193 -43 -90 -45 -289 -219 -342 -298 -32 -48
-38 -45 -19 8 25 72 54 120 117 192 71 81 123 117 231 160 73 30 83 31 221 31
105 0 147 3 155 13 6 7 14 37 18 67 4 30 10 62 15 71 4 8 17 100 29 205 11
104 28 248 37 319 12 99 14 176 9 320 -6 193 -12 244 -43 349 l-17 59 38 34
c108 99 111 140 20 309 l-65 124 26 10 c15 6 48 10 74 10 26 0 52 5 59 12 31
31 -2 129 -129 381 -43 86 -79 159 -79 162 0 3 15 5 33 5 50 0 77 24 77 68 0
89 -66 307 -145 477 -43 92 -44 97 -23 91 101 -27 255 -38 453 -33 264 6 325
23 325 87 0 33 -24 55 -125 116 -189 113 -240 164 -397 399 -138 206 -209 295
-349 430 -192 185 -355 277 -693 391 -97 32 -176 61 -176 64 0 3 23 16 51 30
57 28 109 80 109 110 0 10 -10 30 -22 44 -20 22 -60 35 -272 86 -332 81 -479
131 -703 239 -104 49 -220 101 -260 115 -92 32 -334 92 -487 120 l-118 22 64
47 c71 52 98 90 98 135 0 60 -10 62 -350 62 -445 0 -614 13 -990 75 -328 55
-468 63 -695 44z m-2025 -2294 c266 -45 462 -152 769 -419 488 -425 609 -524
774 -633 111 -73 416 -253 429 -253 5 0 55 -26 111 -59 56 -32 140 -78 187
-101 167 -84 280 -168 375 -280 47 -55 65 -70 87 -70 42 0 54 31 72 190 28
252 20 377 -33 508 -11 29 -21 55 -21 58 0 3 30 -20 68 -49 147 -119 232 -158
458 -213 169 -40 209 -55 284 -102 147 -91 245 -233 365 -525 38 -94 81 -113
120 -53 48 73 74 441 46 635 -7 45 -10 85 -8 87 2 2 42 -31 88 -74 133 -124
718 -542 889 -635 86 -47 239 -97 437 -143 136 -32 163 -41 168 -58 7 -24 24
-372 24 -522 l1 -102 -67 -6 c-38 -4 -142 -9 -233 -11 -215 -4 -754 -24 -849
-30 l-74 -5 24 26 c13 15 47 39 76 56 65 37 75 49 71 90 -2 23 -10 36 -28 45
-31 16 -273 17 -369 3 -107 -17 -177 -1 -286 65 -212 128 -402 184 -829 245
-435 61 -636 62 -967 6 -336 -58 -555 -151 -703 -299 l-70 -70 -135 12 c-143
12 -514 30 -642 31 l-75 0 -70 55 c-141 114 -255 163 -592 260 -322 92 -402
103 -614 87 -84 -7 -170 -12 -192 -12 l-38 0 7 38 c15 82 78 300 119 409 24
64 41 125 38 135 -6 24 -50 35 -67 17 -13 -14 -91 -184 -212 -464 -36 -82 -67
-152 -69 -154 -20 -21 -1 76 91 444 29 121 61 256 71 299 l16 80 108 112 c122
126 147 173 119 223 -15 25 -18 26 -97 24 -45 -1 -82 0 -82 2 0 1 47 46 104
98 167 152 404 402 412 433 5 18 2 36 -9 53 -48 77 -88 178 -84 207 9 55 132
158 279 234 61 32 83 49 92 71 7 19 16 27 26 24 8 -2 58 -11 110 -20z m-527
-500 c16 -25 27 -49 25 -54 -1 -5 -54 -64 -116 -130 l-113 -121 -47 24 c-26
14 -56 31 -66 39 -19 14 -19 15 5 27 27 15 121 87 181 139 21 19 51 54 65 78
13 23 28 43 31 43 4 0 20 -20 35 -45z m182 -1904 c380 -105 474 -135 573 -183
l107 -52 -45 -4 c-25 -2 -171 1 -325 7 -154 6 -447 14 -651 18 l-371 6 27 106
c21 86 30 107 46 109 83 12 265 20 399 18 128 -3 176 -7 240 -25z m-774 -111
c-20 -78 -31 -106 -44 -108 -23 -5 -22 5 14 95 17 43 35 89 40 102 20 51 16
11 -10 -89z m4224 65 c316 -36 603 -121 780 -230 106 -65 127 -74 207 -86 56
-9 98 -9 186 1 61 7 114 11 117 8 5 -5 -26 -46 -73 -95 -19 -21 -28 -23 -55
-16 -18 4 -149 6 -292 5 -391 -5 -861 21 -1550 83 -281 26 -580 49 -772 60
-62 4 -113 9 -113 12 0 27 202 134 335 178 91 29 280 68 435 90 136 19 594 13
795 -10z m-4419 -72 c-12 -96 -9 -93 -84 -92 -64 0 -68 2 -96 35 -20 24 -26
38 -19 45 12 12 171 69 192 69 10 0 12 -12 7 -57z m-480 -54 c104 -18 174 -41
174 -56 0 -8 7 -13 16 -11 9 2 37 -21 66 -54 l50 -57 -3 -123 c-10 -352 4
-621 46 -866 14 -79 25 -146 25 -150 -1 -15 -63 128 -94 218 -18 52 -52 174
-76 270 -121 500 -143 569 -219 687 -47 73 -71 122 -71 144 0 12 13 11 86 -2z
m432 -79 c29 0 32 -3 32 -28 0 -38 31 -66 64 -58 13 3 33 22 45 41 13 22 28
35 41 35 11 0 20 -3 20 -6 0 -3 -20 -105 -45 -227 -47 -235 -111 -677 -121
-849 -4 -57 -10 -109 -14 -116 -7 -14 -34 165 -50 333 -13 134 -12 512 0 669
11 134 9 147 -34 195 l-21 24 25 -6 c14 -4 40 -7 58 -7z m987 -41 c198 -11
467 -26 599 -33 l238 -12 30 -35 c84 -97 136 -287 124 -455 -16 -227 -138
-579 -261 -749 -100 -139 -241 -277 -329 -322 -46 -24 -294 -99 -372 -113 -95
-17 -377 -8 -459 14 -158 43 -322 127 -402 206 -72 69 -68 49 -53 270 24 355
96 839 176 1193 l16 67 166 -5 c92 -4 329 -15 527 -26z m2210 -139 c143 -11
377 -31 520 -45 743 -71 1129 -95 1561 -95 l301 0 -64 -221 c-125 -436 -257
-722 -418 -904 -158 -180 -412 -287 -746 -313 -191 -16 -492 14 -659 64 -235
71 -507 278 -654 498 -65 98 -147 250 -171 317 -66 184 -91 582 -45 705 9 24
13 25 63 20 28 -4 169 -15 312 -26z m1651 -5063 c-107 -94 -269 -217 -431
-326 -316 -212 -600 -333 -951 -406 -180 -37 -318 -46 -518 -34 -257 15 -300
28 -151 44 33 4 139 22 235 41 372 73 666 158 985 284 184 73 597 277 765 379
63 38 117 70 120 70 3 0 -22 -23 -54 -52z"/>
<path d="M9753 11655 c-7 -20 -6 -21 97 -88 96 -62 219 -185 312 -311 206
-281 260 -348 363 -452 61 -61 146 -135 190 -165 92 -62 118 -101 135 -197 12
-71 2 -141 -31 -218 -61 -143 -331 -557 -411 -631 -12 -11 -32 -23 -42 -25
-29 -5 -31 -26 -2 -34 85 -21 219 106 400 383 141 215 186 326 186 458 0 157
-42 235 -179 339 -151 115 -218 191 -500 573 -149 203 -345 363 -464 379 -39
6 -48 4 -54 -11z"/>
<path d="M7495 11448 c-59 -170 -122 -261 -308 -449 -190 -191 -227 -262 -227
-435 0 -196 95 -438 318 -809 133 -222 207 -315 248 -315 19 0 18 6 -7 34 -36
41 -247 404 -309 531 -94 194 -170 438 -170 550 0 60 22 150 50 205 11 21 83
104 159 185 204 213 286 346 279 457 -3 49 -22 76 -33 46z"/>
<path d="M8020 10604 c-119 -25 -204 -55 -315 -111 -128 -65 -197 -90 -268
-99 -62 -8 -82 -20 -66 -40 30 -36 182 -7 354 67 160 69 324 115 446 124 74 6
93 4 164 -19 100 -32 166 -33 349 -4 131 20 151 21 305 10 103 -7 233 -25 341
-46 326 -64 578 -93 918 -105 134 -5 245 -11 248 -14 5 -5 -102 -78 -223 -150
-180 -109 -437 -205 -686 -257 -82 -16 -243 -53 -358 -80 -398 -95 -771 -114
-1074 -54 -96 19 -312 93 -410 139 -93 44 -150 89 -231 182 -80 92 -89 99
-120 84 -35 -15 -30 -49 14 -108 107 -145 317 -395 375 -449 111 -102 248
-163 507 -227 221 -55 348 -70 525 -64 169 6 286 28 452 83 332 111 591 271
927 574 78 70 165 135 291 214 224 143 225 143 225 164 0 38 -19 42 -179 42
-397 0 -780 35 -1161 106 -170 31 -221 37 -395 41 -176 5 -214 3 -320 -17
-158 -29 -213 -28 -302 4 -60 22 -89 26 -170 25 -54 0 -127 -7 -163 -15z
m1910 -649 c-7 -9 -81 -61 -164 -116 -248 -166 -504 -277 -762 -330 -203 -42
-446 -29 -725 41 -276 69 -397 132 -520 271 l-63 71 40 -17 c114 -50 312 -116
399 -134 145 -29 371 -42 550 -31 246 16 328 28 585 90 135 32 301 70 370 85
69 15 163 40 210 55 47 15 87 28 89 29 2 1 -2 -6 -9 -14z"/>
<path d="M7971 8016 c-10 -12 -10 -66 -2 -253 13 -294 14 -944 1 -1278 -16
-419 -33 -710 -40 -689 -9 24 -37 375 -45 564 -7 165 -17 216 -44 225 -68 21
-77 -12 -206 -790 -47 -280 -125 -742 -174 -1025 -138 -795 -150 -889 -158
-1226 -8 -329 21 -641 83 -924 69 -306 202 -530 391 -656 193 -128 302 -84
808 330 234 191 376 291 675 478 1040 647 1333 844 1910 1277 330 248 451 345
995 803 375 315 577 501 1292 1193 75 73 91 105 52 105 -29 0 -242 -189 -596
-531 -257 -248 -664 -600 -1318 -1139 -169 -140 -622 -479 -918 -688 -325
-231 -565 -386 -1172 -760 -600 -370 -712 -448 -1015 -701 -252 -211 -435
-328 -526 -339 -117 -13 -307 167 -405 383 -94 207 -169 691 -169 1087 0 283
28 527 125 1078 66 370 157 922 225 1360 28 179 55 334 60 345 6 14 9 -4 9
-61 1 -45 10 -193 21 -330 44 -559 49 -1022 15 -1366 -18 -186 -13 -211 37
-206 24 2 36 10 44 28 7 14 19 120 28 235 10 116 23 284 31 375 18 212 49 714
80 1280 3 52 10 280 16 505 10 431 -1 1079 -21 1205 -15 93 -58 144 -89 106z"/>
</g>
</svg>
